# xmcd
#
# Track frame offsets:
#	183
#	12880
#	27475
#	40995
#	53928
#	73568
#	85533
#	97070
#
# Disc length: 1434
#
# Revision: 2
# Processed by: cddbd v1.5.1PL0 Copyright (c) Steve Scherf et al.
# Submitted via: ExactAudioCopy v0.90b3
# Normalized: r0:DSETVAR2,TDELIM( - ),TSWAP
#
DISCID=61059808
DTITLE=Various Artist - Alabama and Other Stars
DYEAR=1900
DGENRE=Country
TTITLE0=Alabama - Lovin' You Is Killin' Me
TTITLE1=Vern Gosdin - Dream Of Me
TTITLE2=Alabama - Patches
TTITLE3=Billy Joe Royal - I Knew You When
TTITLE4=Alabama - I Want To Be With You Tonight
TTITLE5=Ronnie Milsap - House Of The Rising Sun
TTITLE6=Johnny Lee - Ramblin' Rose
TTITLE7=Tommy Overstreet - Ann, Don't Go Runnin'
EXTD=
EXTT0=
EXTT1=
EXTT2=
EXTT3=
EXTT4=
EXTT5=
EXTT6=
EXTT7=
PLAYORDER=
